<svg xmlns="http://www.w3.org/2000/svg" width="111.59" height="100" viewBox="0 0 111.59 100">
    <path id="adoption" data-name="Tracé 2454" d="M1112.066,85.931l-52.74-46.5a3.172,3.172,0,0,0-4.079,0l-52.74,46.5a2.982,2.982,0,0,0-.266,4.225l4.216,4.785a3,3,0,0,0,4.226.266l3.281-2.9v40.045a6.329,6.329,0,0,0,6.334,6.334h73.8a6.327,6.327,0,0,0,6.324-6.334V92.163l3.455,3.043a3.009,3.009,0,0,0,4.235-.266l4.216-4.785A3,3,0,0,0,1112.066,85.931Zm-51.494-2.53c1.219-5.041,5.1-8.442,8.653-7.562,3.556.862,5.435,5.646,4.216,10.687s-5.105,8.423-8.643,7.562C1061.242,93.227,1059.344,88.442,1060.573,83.4Zm-15.234-7.562c3.556-.88,7.424,2.521,8.643,7.562s-.66,9.826-4.207,10.687-7.424-2.53-8.643-7.562C1039.895,81.485,1041.792,76.7,1045.339,75.839Zm-16.709,24.72c-1.879-3.776-.9-8.093,2.2-9.642s7.149.257,9.028,4.033.9,8.093-2.2,9.642S1030.509,104.335,1028.63,100.559Zm42.85,26.975c-5.7,0-8.955-3.181-14.2-3.181s-8.506,3.181-14.2,3.181-7.9-3.859-7.9-7.589c0-3.712,8.588-22.163,22.1-22.163s22.09,18.451,22.09,22.163C1079.372,123.675,1077.172,127.534,1071.48,127.534Zm14.464-26.975c-1.9,3.776-5.93,5.591-9.047,4.033-3.1-1.549-4.079-5.866-2.2-9.642s5.93-5.582,9.028-4.033S1087.823,96.783,1085.944,100.559Z" transform="translate(-1001.489 -38.689)" fill="#000000"/>
</svg>
