<svg xmlns="http://www.w3.org/2000/svg" width="117.682" height="100" viewBox="0 0 117.682 100">
    <g id="Groupe_4607" data-name="Groupe 4607" transform="translate(-1399.69 -249.535)">
        <path id="Tracé_2455" data-name="Tracé 2455" d="M1504.939,335.751c-3.11-5.51-6.812-9.323-10.764-11.181a13.12,13.12,0,0,1-11.2,0,21.2,21.2,0,0,0-7.239,5.965,33.857,33.857,0,0,0-2.324,3.229,33.884,33.884,0,0,0-2.33-3.229,21.223,21.223,0,0,0-7.245-5.965,13.106,13.106,0,0,1-11.191,0c-3.958,1.857-7.66,5.67-10.764,11.181a52.006,52.006,0,0,0-3.543,7.8l22.547,22.749,12.521,12.626,8.813-8.887,3.714-3.739,22.547-22.743A51.475,51.475,0,0,0,1504.939,335.751Zm-29.836,4.17a6.332,6.332,0,0,1,.738-1.833,3.914,3.914,0,0,1,3.086-2.165,2.687,2.687,0,0,1,.622.074c1.83.449,2.793,2.927,2.171,5.547-.049.178-.1.357-.152.523v.006a5.082,5.082,0,0,1-2.805,3.29,2.488,2.488,0,0,1-1.494.1C1475.445,345.019,1474.469,342.534,1475.1,339.92ZM1467.267,336a2.7,2.7,0,0,1,.628-.074,3.946,3.946,0,0,1,3.086,2.165v.006a6.573,6.573,0,0,1,.738,1.827c.622,2.614-.342,5.1-2.165,5.541a2.51,2.51,0,0,1-1.5-.1,5.055,5.055,0,0,1-2.8-3.3c-.055-.166-.1-.344-.152-.523C1464.48,338.924,1465.443,336.446,1467.267,336Zm-8.587,12.817c-.964-1.956-.457-4.194,1.134-4.994a3.479,3.479,0,0,1,4.336,1.562,4.1,4.1,0,0,1,.3.529c.97,1.956.464,4.194-1.134,4.994a2.967,2.967,0,0,1-.653.234A3.828,3.828,0,0,1,1458.68,348.813Zm23.346,13.819v.006a5.138,5.138,0,0,1-1.323.16c-2.921,0-4.6-1.648-7.294-1.648s-4.373,1.648-7.294,1.648a5.14,5.14,0,0,1-1.324-.16v-.006a3.651,3.651,0,0,1-2.738-3.764c0-1.175,1.653-5.209,4.519-8.173a8.7,8.7,0,0,1,13.674,0c2.866,2.964,4.513,7,4.513,8.173A3.652,3.652,0,0,1,1482.026,362.632Zm6.117-13.819a3.836,3.836,0,0,1-3.989,2.325,2.726,2.726,0,0,1-.659-.234c-1.6-.8-2.1-3.038-1.134-4.994a4.112,4.112,0,0,1,.3-.529,3.475,3.475,0,0,1,4.336-1.562C1488.594,344.619,1489.107,346.858,1488.143,348.813Z" transform="translate(-14.88 -29.389)" fill="#000000"/>
        <path id="Tracé_2456" data-name="Tracé 2456" d="M1524.3,298.894a9.594,9.594,0,1,1-9.594-9.594A9.575,9.575,0,0,1,1524.3,298.894Z" transform="translate(-40.972 -15.46)" fill="#000000"/>
        <path id="Tracé_2457" data-name="Tracé 2457" d="M1474.562,298.894a9.591,9.591,0,1,1-9.594-9.594A9.568,9.568,0,0,1,1474.562,298.894Z" transform="translate(-21.644 -15.46)" fill="#000000"/>
        <path id="Tracé_2458" data-name="Tracé 2458" d="M1517.372,278.744a29.291,29.291,0,0,1-8.494,20.7l-9.2,9.225-3.066,3.081c-3.341-8.481-8.145-15.006-13.775-18.432a13.282,13.282,0,1,0-18.181,0,26.25,26.25,0,0,0-6.132,5.307,26.346,26.346,0,0,0-6.125-5.307,13.282,13.282,0,1,0-18.181,0c-5.63,3.426-10.434,9.951-13.775,18.432l-3.066-3.081-9.2-9.225a29.179,29.179,0,0,1,41.153-41.377l9.2,9.25,9.185-9.25a29.077,29.077,0,0,1,49.659,20.676Z" fill="#000000"/>
    </g>
</svg>
