<svg xmlns="http://www.w3.org/2000/svg" width="87.5" height="100" viewBox="0 0 87.5 100">
    <g id="Groupe_4613" data-name="Groupe 4613" transform="translate(-1087.492 -594.907)">
        <path id="Tracé_2474" data-name="Tracé 2474" d="M1173.117,668.657c-.625,2.5-.625,11.251,0,14.376a5.4,5.4,0,0,1,1.875,3.749v3.125a4.929,4.929,0,0,1-5,5h-63.75a18.416,18.416,0,0,1-18.75-18.75v-62.5a18.416,18.416,0,0,1,18.75-18.75h63.75a4.6,4.6,0,0,1,5,5v65Q1174.992,667.719,1173.117,668.657Zm-11.25,1.25h-55.625a6.263,6.263,0,0,0-6.25,6.25,5.9,5.9,0,0,0,6.25,6.25h55.625Zm-46.25-32.812a1.563,1.563,0,0,0,1.563,1.563h10.937V649.6a1.563,1.563,0,0,0,1.563,1.562h9.375a1.563,1.563,0,0,0,1.562-1.562V638.658h10.938a1.563,1.563,0,0,0,1.563-1.563V627.72a1.563,1.563,0,0,0-1.562-1.563h-10.937V615.22a1.563,1.563,0,0,0-1.562-1.563h-9.375a1.563,1.563,0,0,0-1.563,1.563v10.937H1117.18a1.563,1.563,0,0,0-1.563,1.563Z" transform="translate(0)" fill="#000000"/>
    </g>
</svg>
