<svg xmlns="http://www.w3.org/2000/svg" width="100" height="100" viewBox="0 0 100 100">
    <path id="Icon_awesome-info-circle" data-name="Icon awesome-info-circle" d="M50.563.563a50,50,0,1,0,50,50A50.008,50.008,0,0,0,50.563.563Zm0,22.177a8.468,8.468,0,1,1-8.468,8.468A8.468,8.468,0,0,1,50.563,22.74Zm11.29,51.21a2.419,2.419,0,0,1-2.419,2.419H41.692a2.419,2.419,0,0,1-2.419-2.419V69.111a2.419,2.419,0,0,1,2.419-2.419h2.419v-12.9H41.692a2.419,2.419,0,0,1-2.419-2.419V46.53a2.419,2.419,0,0,1,2.419-2.419h12.9a2.419,2.419,0,0,1,2.419,2.419V66.692h2.419a2.419,2.419,0,0,1,2.419,2.419Z" transform="translate(-0.563 -0.563)" fill="#000000"/>
</svg>
