<svg xmlns="http://www.w3.org/2000/svg" xmlns:xlink="http://www.w3.org/1999/xlink" width="146" height="171" viewBox="0 0 146 171">
  <defs>
    <clipPath id="clip-path">
      <rect id="Rectangle_1680" data-name="Rectangle 1680" width="146" height="171" fill="#fff"/>
    </clipPath>
  </defs>
  <g id="leaf-top-left" clip-path="url(#clip-path)">
    <g id="Corner_Plants" data-name="Corner Plants" transform="translate(-45.054 -123.896)" opacity="0.5">
      <path id="Fill_10" data-name="Fill 10" d="M93-22.364a51.114,51.114,0,0,1-11.522.675A71.7,71.7,0,0,1,28.652-46.65C17.686-59.578,14.671-75.65,12.5-91.9c-.215-1.613-.307-3.216-.428-4.832-.026-.347-.065-.656-.106-.948-.852-.759-1.3-1.643-.795-2.615A107.733,107.733,0,0,1,6.349-112.9C2.339-125.635-1.74-138.611.773-152a186.354,186.354,0,0,0,3.3,22.15c.085.416.177.829.272,1.24.01.043.019.087.029.13A48.293,48.293,0,0,0,6.4-121.989c.009.023.017.046.026.069.109.279.225.556.339.834.237.574.48,1.147.738,1.718q.131.291.251.588c1.2,2.936,1.711,6.245,2.789,9.283q.387,1.036.81,2.064l.051.12c.763,1.842,1.607,3.662,2.5,5.463a6.719,6.719,0,0,1,1.162,2.08,12.987,12.987,0,0,1,.963,1.855q.788,1.518,1.577,3.034l-.048-.018q.794,1.455,1.587,2.9l.35.635.567,1.011c1.766,3.146,3.637,6.23,5.582,9.275.694,1.087,2.351,2.645,2.669,3.865.012.046.014.088.022.131a69.377,69.377,0,0,0,14.9,15.655c-.7-.758-2.2-3.33-2.6-3.839-1.211-1.559-2.525-3.01-3.844-4.479a95.432,95.432,0,0,1-6.719-8.217A156.038,156.038,0,0,1,20.032-94.378c-.029-.033-.061-.064-.088-.1-1.536-1.886-2.5-4.737-3.61-6.894,4.377,2.019,9.217,3.334,13.709,5.127a112.849,112.849,0,0,1,13.044,6.115A145.645,145.645,0,0,1,59.763-79.547c6.055,3.74,11.142,8.888,15.633,14.291,5.314,6.392,10.183,12.84,13.195,20.6a61.665,61.665,0,0,1,3.333,11.814c.03.175.069.366.111.563A38.619,38.619,0,0,1,93.9-28.015c.841,2.305,2.827,4.841-.9,5.651" transform="translate(48.069 311.909)" fill="#69a1ac"/>
      <path id="Fill_1" data-name="Fill 1" d="M142.7,215.509c-4.186,2.535-9.817,3.1-14.9,3-19.848-.419-38.659-7.526-55.007-17.869a132.613,132.613,0,0,1-24.162-20.228,61.5,61.5,0,0,1-10.476-13.994,46.4,46.4,0,0,1-3.935-10.695,102.2,102.2,0,0,1-2.408-13.594c-.179-1.789-1.537-11.291,1.717-11.383a3.745,3.745,0,0,1-.018-.656c-7.307-10.232-11.95-22.141-16.262-33.43a217.6,217.6,0,0,1-9.394-29.85A301.492,301.492,0,0,1,1.643,26.471c-.247-2.9-.438-5.8-.611-8.7Q.811,14.062.59,10.351C.426,7.578-.183,4.377.237,1.633.6-.757,2.888-.346,3.044,2.044c.188,2.885.235,5.773.44,8.661q.409,5.749.845,11.5a254.8,254.8,0,0,0,18.505,78.254,183.8,183.8,0,0,0,15.181,29.493,217.267,217.267,0,0,0,18.365,24.1c6.371,7.374,12.983,14.586,20.725,20.883A165.717,165.717,0,0,0,97.34,188.706c8.976,5.314,17.933,10.5,27.618,14.642,5.035,2.151,10.159,4.09,15.23,6.159.913.372,1.89.735,2.769,1.163,2.933,1.425,2.025,3.46-.254,4.84" transform="translate(0 28.603) rotate(-13)" fill="#c1dee2"/>
      <path id="Fill_20" data-name="Fill 20" d="M47.523-10.827c8.109,0,15.326-1.055,22.8-4.283A101.292,101.292,0,0,0,88.355-25.6c8.027-5.647,14.35-12.219,18.776-20.927,2.644-5.2,4.584-12.564,2.808-18.238-2.092-6.683-7.835-12.257-15.4-11.079-4.678.727-8.965,3.829-12.521,6.747A47.4,47.4,0,0,0,71.55-56.741c-4.586,7.606-7.28,16.206-11.176,24.154-1.848,3.772-3.635,7.572-5.849,11.157A17.992,17.992,0,0,1,50.6-16.577c-.89.706-4.64,1.927-3.206,3.512C26.365-13.342,7.735-29.518,3.7-49.54c-.376-1.866-.67-3.748-.98-5.625-.2-1.186-.117-5.558-1.175-6.316C-.792-63.152.189-58.076.289-57.345q.388,2.833.825,5.66A47.131,47.131,0,0,0,14.842-24.6C23.529-16.247,35.249-10.827,47.523-10.827Z" transform="translate(43.781 159.199)" fill="#89c5cc"/>
    </g>
  </g>
</svg>
