<svg xmlns="http://www.w3.org/2000/svg" viewBox="0 0 389.19 358.36"><defs><style>.cls-1{fill:#13e2ba;}.cls-2{fill:#ec1d45;}.cls-3{fill:#333;}</style></defs><title>Logo_asso</title><g id="Calque_2" data-name="Calque 2"><g id="Calque_1-2" data-name="Calque 1"><path class="cls-1" d="M201.49,231.71c13.2-.69,26.4-3.6,37-11.47,10.43-7.76,17.78-19.35,19.54-31.86a86.86,86.86,0,0,0,.37-14.94c-.52-15.68-1.48-32.46-11.33-45-9.6-12.24-25.64-17.9-40.78-22.95-7.94-2.65-16-5.31-24.37-5.91-8.85-.63-17.74,1.1-26.15,3.8-5,1.61-9.93,3.61-13.94,6.86-5.65,4.58-9,11.31-13.4,16.72l-3.87,5.46c-4.55,7.78-10.74,14.93-14.54,23.23-8.23,17.94-4,39.86,8.47,55.43,6.17,7.71,12.38,10.36,21.5,12.86,4.38,1.2,8.43,3.44,13,4.43a121.07,121.07,0,0,0,14.82,1.94c5.22.47,10.44.93,15.68,1.24A161.53,161.53,0,0,0,201.49,231.71Z"/><path class="cls-1" d="M87.78,61.46c-3.43,9.23-9.3,17.76-10,27.66-1.06,14.45,4.73,34.37,21.38,38.17a6.77,6.77,0,0,0,2.7.19,6.89,6.89,0,0,0,2.75-1.41c19.46-14.35,23.88-39,11.69-60.64a27.8,27.8,0,0,0-6.18-7.88c-7.74-6.45-20.54-3.21-22.7,6.57"/><path class="cls-1" d="M151.71,15.56c-3.38,9.29-9.23,17.93-9.86,27.83C140.92,57.84,147,77.57,163.9,81a6.94,6.94,0,0,0,2.74.13,7.12,7.12,0,0,0,2.77-1.47C189,64.87,193.19,40.16,180.62,18.86a27.31,27.31,0,0,0-6.34-7.72c-7.91-6.26-20.83-2.73-22.92,7.08"/><path class="cls-1" d="M215.65,11.49c-1.34,10.05-5.25,20.11-3.78,30C214,56,224.09,73.9,241.31,72.83a7,7,0,0,0,2.7-.59,7.68,7.68,0,0,0,2.4-2.18c16-19.7,14.93-45.18-1.83-62.9a25.53,25.53,0,0,0-7.82-6c-9-4.1-20.92,2.77-20.9,13"/><path class="cls-1" d="M276,71.58c-4,9.05-10.44,17.41-11.84,27.11-2,14.15,2.36,33.61,18.65,37.26a6.72,6.72,0,0,0,2.67.18,7.5,7.5,0,0,0,2.83-1.39C308.61,120.6,314.68,96.46,304,75.34a24.54,24.54,0,0,0-5.6-7.69c-7.25-6.28-20.18-3.06-23,6.53"/><path class="cls-2" d="M10,299a5.07,5.07,0,0,1-2,3.09,5.58,5.58,0,0,1-3.13,1,5.22,5.22,0,0,1-3.33-1.16A4.07,4.07,0,0,1,0,298.54a3.3,3.3,0,0,1,.08-.77,41.31,41.31,0,0,1,1.82-7.69,74.91,74.91,0,0,1,2.94-7.35q1.66-3.6,3.56-7.11t3.67-7q.85-1.62,1.55-2.86T15,263.4q.7-1.12,1.39-2.32T18,258.33a6,6,0,0,1,2.4-2.4,6.37,6.37,0,0,1,3.09-.85,4.82,4.82,0,0,1,3,1,4.63,4.63,0,0,1,1.62,3.18q.39,2.79.89,5.24t1.08,4.77q.58,2.33,1.16,4.77t1.2,5.24c.46,0,.93,0,1.39,0s1,0,1.47,0a4.19,4.19,0,0,1,3.36,1.31,4.49,4.49,0,0,1,1.12,3,5.91,5.91,0,0,1-1,3.2,5.24,5.24,0,0,1-3,2.2q.77,2.39,1.58,4.66a14.23,14.23,0,0,1,.81,4.82,5.58,5.58,0,0,1-1.47,4.24,4.81,4.81,0,0,1-3.4,1.39A5.13,5.13,0,0,1,30,302.76a5.42,5.42,0,0,1-1.78-3.91,20.8,20.8,0,0,0-1-4.83q-.81-2.36-1.82-4.68l-12.68.31a32.15,32.15,0,0,0-1.51,4.6Q10.59,296.61,10,299Zm11.14-26q-.85,1.64-1.74,3.29t-1.82,3.29q1.16,0,2.32,0t2.32,0a24.87,24.87,0,0,1-.58-3.4A23.54,23.54,0,0,0,21.11,273Z"/><path class="cls-2" d="M70.29,267.54a11.52,11.52,0,0,1,3.4,3.25,5.87,5.87,0,0,1,1,3.05,4.07,4.07,0,0,1-.81,2.51,4.2,4.2,0,0,1-2.13,1.51,5.86,5.86,0,0,1-2.86.15A5.71,5.71,0,0,1,66,276.43a10.16,10.16,0,0,0-4.64-2.63,9,9,0,0,0-3.9-.19q-1.51.35-1.7,1.39t2,2.13q1.86.93,3.75,1.66a39.55,39.55,0,0,1,3.63,1.62,15.05,15.05,0,0,1,3.17,2.17A9.6,9.6,0,0,1,70.6,286a10.58,10.58,0,0,1,.54,7.38,13,13,0,0,1-3.87,6,15.82,15.82,0,0,1-6.69,3.48,14.51,14.51,0,0,1-7.85-.15,17.14,17.14,0,0,1-3.83-1.51,20.47,20.47,0,0,1-3.36-2.44A5.31,5.31,0,0,1,43.38,295a4.75,4.75,0,0,1,1.12-3.4,5.29,5.29,0,0,1,3.25-1.74A5.66,5.66,0,0,1,52,291.12a13.15,13.15,0,0,0,4.41,2.24,4.15,4.15,0,0,0,2.78,0q1.62-.93,1.62-1.89a2.7,2.7,0,0,0-.93-1.89,9.62,9.62,0,0,0-2.44-1.7q-1.51-.77-2.9-1.39a22.18,22.18,0,0,1-4.6-2.63,17.3,17.3,0,0,1-3.71-3.67,10.55,10.55,0,0,1-1.93-4.52,9.09,9.09,0,0,1,.74-5.18,8,8,0,0,1,2.24-3.09,13.81,13.81,0,0,1,3.29-2,16.08,16.08,0,0,1,3.83-1.16,23.14,23.14,0,0,1,3.94-.35,19.63,19.63,0,0,1,6.38,1A24.63,24.63,0,0,1,70.29,267.54Z"/><path class="cls-2" d="M104.63,267.54a11.52,11.52,0,0,1,3.4,3.25,5.87,5.87,0,0,1,1,3.05,4.07,4.07,0,0,1-.81,2.51,4.2,4.2,0,0,1-2.13,1.51,5.86,5.86,0,0,1-2.86.15,5.71,5.71,0,0,1-2.94-1.58,10.16,10.16,0,0,0-4.64-2.63,9,9,0,0,0-3.91-.19Q90.24,274,90,275t2,2.13q1.86.93,3.75,1.66a39.41,39.41,0,0,1,3.63,1.62,15,15,0,0,1,3.17,2.17,9.59,9.59,0,0,1,2.36,3.44,10.57,10.57,0,0,1,.54,7.38,13,13,0,0,1-3.87,6,15.81,15.81,0,0,1-6.69,3.48,14.51,14.51,0,0,1-7.85-.15,17.13,17.13,0,0,1-3.83-1.51,20.43,20.43,0,0,1-3.36-2.44A5.31,5.31,0,0,1,77.71,295a4.75,4.75,0,0,1,1.12-3.4,5.29,5.29,0,0,1,3.25-1.74,5.66,5.66,0,0,1,4.29,1.28,13.15,13.15,0,0,0,4.41,2.24,4.15,4.15,0,0,0,2.78,0q1.62-.93,1.62-1.89a2.7,2.7,0,0,0-.93-1.89,9.63,9.63,0,0,0-2.44-1.7q-1.51-.77-2.9-1.39a22.18,22.18,0,0,1-4.6-2.63,17.32,17.32,0,0,1-3.71-3.67,10.53,10.53,0,0,1-1.93-4.52,9.08,9.08,0,0,1,.73-5.18,8,8,0,0,1,2.24-3.09,13.81,13.81,0,0,1,3.29-2,16.06,16.06,0,0,1,3.83-1.16,23.14,23.14,0,0,1,3.94-.35,19.64,19.64,0,0,1,6.38,1A24.62,24.62,0,0,1,104.63,267.54Z"/><path class="cls-2" d="M138.57,266.07a12,12,0,0,1,5,4.76,21.22,21.22,0,0,1,2.59,7.19,29.46,29.46,0,0,1,.23,8.27,24.47,24.47,0,0,1-2.17,7.89,17.76,17.76,0,0,1-4.64,6.07,12.47,12.47,0,0,1-7,2.86,14.15,14.15,0,0,1-6.8-.85,16.89,16.89,0,0,1-5.53-3.6A23,23,0,0,1,116,293a32.38,32.38,0,0,1-2.78-7,17.5,17.5,0,0,1-.5-7.81,15.43,15.43,0,0,1,2.55-6.22,16.53,16.53,0,0,1,4.72-4.45,20.92,20.92,0,0,1,6-2.59,19.45,19.45,0,0,1,6.46-.54A17.17,17.17,0,0,1,138.57,266.07Zm-4.41,8.43a4.29,4.29,0,0,0-2.28-.43,13.86,13.86,0,0,0-3.13.46,17.67,17.67,0,0,0-3.09,1.12,7.1,7.1,0,0,0-2.24,1.55,5.45,5.45,0,0,0-1.2,3.63,15.11,15.11,0,0,0,.7,4.72,18,18,0,0,0,2,4.41,7,7,0,0,0,2.75,2.71,6.53,6.53,0,0,0,4.68.73,5.77,5.77,0,0,0,3.17-2.28,11.4,11.4,0,0,0,1.74-4.18,16.93,16.93,0,0,0,.35-4.95,14.78,14.78,0,0,0-1-4.52A6,6,0,0,0,134.17,274.5Z"/><path class="cls-2" d="M175.92,265.37a6.49,6.49,0,0,1,3.4,2.53,6.59,6.59,0,0,1,1.16,3.7,5.24,5.24,0,0,1-1.28,3.46,4.62,4.62,0,0,1-3.75,1.52,36.14,36.14,0,0,0-4.68.31,16.92,16.92,0,0,0-4.45,1.2,11.81,11.81,0,0,0-3.75,2.55,10.52,10.52,0,0,0-2.51,4.29,5.94,5.94,0,0,0-.23,1.55,4.21,4.21,0,0,0,.58,2.2,5.37,5.37,0,0,0,1.59,1.66,7.34,7.34,0,0,0,2.28,1,9.78,9.78,0,0,0,2.59.35,6.68,6.68,0,0,0,2.13-.35q1-.35,2-.73l1.78-.73a4.28,4.28,0,0,1,1.62-.35,4.07,4.07,0,0,1,3.36,1.62,5.85,5.85,0,0,1,1.28,3.71,5.77,5.77,0,0,1-1.16,3.56,10.17,10.17,0,0,1-3,2.63,14.67,14.67,0,0,1-4,1.62,17.24,17.24,0,0,1-4.18.54,18.53,18.53,0,0,1-6.42-1.16,18.1,18.1,0,0,1-5.65-3.29,16.5,16.5,0,0,1-4-5.12,14.48,14.48,0,0,1-1.51-6.62,18.51,18.51,0,0,1,.62-4.42,24.4,24.4,0,0,1,8.08-12.94,21.79,21.79,0,0,1,6.23-3.6,19.84,19.84,0,0,1,7-1.28A20.31,20.31,0,0,1,175.92,265.37Z"/><path class="cls-2" d="M185,271.4a4.9,4.9,0,0,1,1.93-3.71,6,6,0,0,1,3.56-1.24,4.77,4.77,0,0,1,3.13,1.12,4.12,4.12,0,0,1,1.35,3.36q0,3.87-.23,8t-.23,8.08q0,2.55.19,4.91a43.73,43.73,0,0,0,.58,4.45c.05.26.09.5.12.73a6.77,6.77,0,0,1,0,.73,5.13,5.13,0,0,1-1.51,3.91,4.86,4.86,0,0,1-3.44,1.43,4,4,0,0,1-3.4-1.74,11.92,11.92,0,0,1-1.82-4.48,38.19,38.19,0,0,1-.73-6.15q-.16-3.4-.16-6.73t.16-6.42Q184.74,274.5,185,271.4Zm4.79-8.43a4.51,4.51,0,0,1-3.25-1.35,4.69,4.69,0,0,1-1.39-3.52,5.71,5.71,0,0,1,.54-2.36,8.61,8.61,0,0,1,1.39-2.17,6.36,6.36,0,0,1,1.93-1.51,4.14,4.14,0,0,1,2.17-.46,4.3,4.3,0,0,1,3.25,1.39,5.08,5.08,0,0,1,1.31,3.63,4.91,4.91,0,0,1-.58,2.28,8.63,8.63,0,0,1-1.43,2,7.7,7.7,0,0,1-1.93,1.47A4.3,4.3,0,0,1,189.84,263Z"/><path class="cls-2" d="M236.78,289.81a12.12,12.12,0,0,1,.81,5.41,8.71,8.71,0,0,1-1.31,3.94,5.68,5.68,0,0,1-2.55,2.17,3.9,3.9,0,0,1-2.9.12,4.86,4.86,0,0,1-2.44-2.28,10.32,10.32,0,0,1-1.12-4.95,33.53,33.53,0,0,1-4.79,3.17,12.25,12.25,0,0,1-5.65,1.47,14.38,14.38,0,0,1-6.57-1.16,13.58,13.58,0,0,1-5-3.79,17.75,17.75,0,0,1-3.17-6,24.87,24.87,0,0,1-1.12-7.66,10.11,10.11,0,0,1,1.74-5.76,15.29,15.29,0,0,1,4.52-4.37,21.46,21.46,0,0,1,6.23-2.67,25,25,0,0,1,6.84-.81,19.45,19.45,0,0,1,6.65,1.08,10.63,10.63,0,0,1,4.06,2.67,10.75,10.75,0,0,1,2.24,3.87,35.13,35.13,0,0,1,1.2,4.72q.46,2.51.93,5.26A36.88,36.88,0,0,0,236.78,289.81Zm-26.29-8.66A6.52,6.52,0,0,0,213,286.6a7.43,7.43,0,0,0,2.59,1.31,13.09,13.09,0,0,0,3,.5q1,0,2-.08a4.26,4.26,0,0,0,1.93-.62A3.76,3.76,0,0,0,224,286a8.39,8.39,0,0,0,.54-3.36,7.39,7.39,0,0,0-.85-3.91,5.57,5.57,0,0,0-2-2,5.45,5.45,0,0,0-2.28-.7q-1.16-.08-1.78-.08a9.54,9.54,0,0,0-2.71.39,8,8,0,0,0-2.32,1.08,5.39,5.39,0,0,0-1.58,1.66A3.92,3.92,0,0,0,210.49,281.15Z"/><path class="cls-2" d="M246.29,265.06a26.32,26.32,0,0,0,.62-2.82,26.14,26.14,0,0,1,.62-2.82,7.73,7.73,0,0,1,2.24-3.79,4.66,4.66,0,0,1,3-1.24,4.39,4.39,0,0,1,3.21,1.47,6,6,0,0,1,1.43,4.33,12.07,12.07,0,0,1-.27,2.51q-.27,1.28-.58,2.36a21.54,21.54,0,0,1,3.17.23,8.57,8.57,0,0,1,2.67.81,4.61,4.61,0,0,1,1.78,1.57,4,4,0,0,1,.58,2.46,5.18,5.18,0,0,1-.77,2.76,4.26,4.26,0,0,1-1.86,1.5,9,9,0,0,1-2.67.65,31.71,31.71,0,0,1-3.21.15,10.77,10.77,0,0,1-2.09-.23,34.59,34.59,0,0,0-.58,3.49,30.72,30.72,0,0,0-.19,3.49,28.09,28.09,0,0,0,2.24,11,22.06,22.06,0,0,0,7.5,9.18,4.19,4.19,0,0,1,1.7,3.33,4.89,4.89,0,0,1-.42,2,6.13,6.13,0,0,1-1.16,1.74,6.45,6.45,0,0,1-1.7,1.28,4.36,4.36,0,0,1-4.14,0,21.68,21.68,0,0,1-6.53-4.92,28.32,28.32,0,0,1-4.41-6.59,30.73,30.73,0,0,1-2.51-7.67,43.69,43.69,0,0,1-.77-8.18q0-2.09.19-4.11t.58-4q-3.71-.15-5.37-1.61a4.24,4.24,0,0,1-1.66-3.22,4.83,4.83,0,0,1,1.86-3.64,7.41,7.41,0,0,1,5.1-1.65A13.94,13.94,0,0,1,246.29,265.06Z"/><path class="cls-2" d="M269.49,271.4a4.89,4.89,0,0,1,1.93-3.71,6,6,0,0,1,3.56-1.24,4.77,4.77,0,0,1,3.13,1.12,4.12,4.12,0,0,1,1.35,3.36q0,3.87-.23,8T279,287q0,2.55.19,4.91a43.73,43.73,0,0,0,.58,4.45c.05.26.09.5.12.73a6.77,6.77,0,0,1,0,.73,5.13,5.13,0,0,1-1.51,3.91,4.86,4.86,0,0,1-3.44,1.43,4,4,0,0,1-3.4-1.74,11.92,11.92,0,0,1-1.82-4.48,38.19,38.19,0,0,1-.73-6.15q-.16-3.4-.15-6.73t.15-6.42Q269.18,274.5,269.49,271.4Zm4.79-8.43a4.51,4.51,0,0,1-3.25-1.35,4.69,4.69,0,0,1-1.39-3.52,5.7,5.7,0,0,1,.54-2.36,8.61,8.61,0,0,1,1.39-2.17,6.35,6.35,0,0,1,1.93-1.51,4.13,4.13,0,0,1,2.17-.46,4.29,4.29,0,0,1,3.25,1.39,5.08,5.08,0,0,1,1.31,3.63,4.91,4.91,0,0,1-.58,2.28,8.63,8.63,0,0,1-1.43,2,7.7,7.7,0,0,1-1.93,1.47A4.3,4.3,0,0,1,274.28,263Z"/><path class="cls-2" d="M310.55,266.07a12,12,0,0,1,5,4.76,21.2,21.2,0,0,1,2.59,7.19,29.46,29.46,0,0,1,.23,8.27,24.49,24.49,0,0,1-2.17,7.89,17.76,17.76,0,0,1-4.64,6.07,12.47,12.47,0,0,1-7,2.86,14.14,14.14,0,0,1-6.8-.85,16.89,16.89,0,0,1-5.53-3.6A23,23,0,0,1,288,293a32.37,32.37,0,0,1-2.78-7,17.5,17.5,0,0,1-.5-7.81,15.43,15.43,0,0,1,2.55-6.22,16.53,16.53,0,0,1,4.72-4.45,20.93,20.93,0,0,1,6-2.59,19.45,19.45,0,0,1,6.46-.54A17.17,17.17,0,0,1,310.55,266.07Zm-4.41,8.43a4.29,4.29,0,0,0-2.28-.43,13.85,13.85,0,0,0-3.13.46,17.71,17.71,0,0,0-3.09,1.12,7.11,7.11,0,0,0-2.24,1.55,5.45,5.45,0,0,0-1.2,3.63,15.11,15.11,0,0,0,.7,4.72,18,18,0,0,0,2,4.41,7,7,0,0,0,2.75,2.71,6.53,6.53,0,0,0,4.68.73,5.77,5.77,0,0,0,3.17-2.28,11.4,11.4,0,0,0,1.74-4.18,16.9,16.9,0,0,0,.35-4.95,14.73,14.73,0,0,0-1-4.52A6,6,0,0,0,306.14,274.5Z"/><path class="cls-2" d="M324.35,264.95a4.78,4.78,0,0,1,3.29-1.2,12,12,0,0,1,1.78.12,2.14,2.14,0,0,1,1.24.58,3.2,3.2,0,0,1,.73,1.35,13.58,13.58,0,0,1,.43,2.51,3.92,3.92,0,0,0,1.43-.77,5.75,5.75,0,0,1,1.24-.85,8.9,8.9,0,0,1,2.09-.7,22.78,22.78,0,0,1,4.06-.39,9.82,9.82,0,0,1,6,1.59,12.71,12.71,0,0,1,3.91,4.41,24.26,24.26,0,0,1,2.32,6.3,52,52,0,0,1,1.12,7.27q.31,3.71.35,7.27t0,6.34a6.19,6.19,0,0,1-1.7,4.75,5.61,5.61,0,0,1-3.94,1.59A4.46,4.46,0,0,1,344.5,303a12.65,12.65,0,0,1-1.55-5.26,48.79,48.79,0,0,1-.15-6.8,59.28,59.28,0,0,0-.08-6.8,15.23,15.23,0,0,0-1.2-5.26,3.6,3.6,0,0,0-3.6-2.09,3.93,3.93,0,0,0-2.63.85,5.85,5.85,0,0,0-1.58,2.2,11.78,11.78,0,0,0-.81,3,23.3,23.3,0,0,0-.23,3.21q0,2-.23,4.6t-.23,5.3a14.43,14.43,0,0,1-.81,5.68q-.81,1.74-3.6,1.74a4.76,4.76,0,0,1-3.79-1.86,7.36,7.36,0,0,1-1.55-4.87V269.16A7.22,7.22,0,0,1,324.35,264.95Z"/><path class="cls-2" d="M384.78,267.54a11.5,11.5,0,0,1,3.4,3.25,5.86,5.86,0,0,1,1,3.05,4.07,4.07,0,0,1-.81,2.51,4.2,4.2,0,0,1-2.13,1.51,5.86,5.86,0,0,1-2.86.15,5.71,5.71,0,0,1-2.94-1.58,10.16,10.16,0,0,0-4.64-2.63,9,9,0,0,0-3.91-.19q-1.51.35-1.7,1.39t2,2.13q1.86.93,3.75,1.66a39.64,39.64,0,0,1,3.63,1.62,15.05,15.05,0,0,1,3.17,2.17,9.6,9.6,0,0,1,2.36,3.44,10.58,10.58,0,0,1,.54,7.38,13,13,0,0,1-3.87,6,15.81,15.81,0,0,1-6.69,3.48,14.51,14.51,0,0,1-7.85-.15,17.13,17.13,0,0,1-3.83-1.51,20.43,20.43,0,0,1-3.36-2.44,5.31,5.31,0,0,1-2.17-3.79,4.75,4.75,0,0,1,1.12-3.4,5.29,5.29,0,0,1,3.25-1.74,5.66,5.66,0,0,1,4.29,1.28,13.14,13.14,0,0,0,4.41,2.24,4.15,4.15,0,0,0,2.78,0q1.62-.93,1.62-1.89a2.7,2.7,0,0,0-.93-1.89,9.6,9.6,0,0,0-2.44-1.7q-1.51-.77-2.9-1.39a22.18,22.18,0,0,1-4.6-2.63,17.34,17.34,0,0,1-3.71-3.67,10.54,10.54,0,0,1-1.93-4.52,9.08,9.08,0,0,1,.73-5.18,8,8,0,0,1,2.24-3.09,13.82,13.82,0,0,1,3.29-2,16.06,16.06,0,0,1,3.83-1.16,23.15,23.15,0,0,1,3.94-.35,19.63,19.63,0,0,1,6.38,1A24.61,24.61,0,0,1,384.78,267.54Z"/><path class="cls-1" d="M212.35,345.51a6.54,6.54,0,0,1,0,2,5.24,5.24,0,0,1-.55,1.76,3.21,3.21,0,0,1-1.1,1.21,2.29,2.29,0,0,1-1.57.33q-2.37,0-3.64-3.36-.44-1.16-.85-2.56t-.83-3.23q-.41-1.82-.8-4.11t-.77-5.21a22.93,22.93,0,0,1-1.85,4.05q-1.13,2-2,3.56a11.19,11.19,0,0,1-2.51,3.31,4.47,4.47,0,0,1-3,1.21,4.22,4.22,0,0,1-2.51-.91,8.19,8.19,0,0,1-2.29-3,23.93,23.93,0,0,0-1.27-2.26q-.61-.94-1.19-1.79t-1.16-1.74a15.41,15.41,0,0,1-1.13-2.1q.11.88.17,1.79t.05,1.85q0,2.15-.14,4.19t-.39,3.8q-.25,1.77-.52,3.12a16.42,16.42,0,0,1-.55,2.12,3.26,3.26,0,0,1-1.46,1.74,4.15,4.15,0,0,1-2.07.58,3.14,3.14,0,0,1-1.6-.41,3.09,3.09,0,0,1-1.13-1.1,4,4,0,0,1-.52-1.57,3.32,3.32,0,0,1,.28-1.77q.33-3.8.55-6.87t.44-6q.22-2.92.44-6t.61-6.78a4.23,4.23,0,0,1,1.19-2.87,3.3,3.3,0,0,1,2.29-.94,4.18,4.18,0,0,1,2.48.88,5.92,5.92,0,0,1,1.93,2.65q.88,2.1,1.74,3.86t1.76,3.47l1.85,3.45q.94,1.74,2,3.78.83-2,1.76-4.3t1.74-4.55q.8-2.23,1.41-4.16t.88-3.09a3.48,3.48,0,0,1,1.38-2.26,3.93,3.93,0,0,1,2.26-.72,4.29,4.29,0,0,1,2.23.61,3.17,3.17,0,0,1,1.41,1.65q1.49,4.3,3.14,11.14T212.35,345.51Z"/><path class="cls-1" d="M213.28,333.76a4.19,4.19,0,0,1-1.08-1.46,4,4,0,0,1-.3-1.52,3.71,3.71,0,0,1,1-2.56,3.09,3.09,0,0,1,2.4-1.08,3.51,3.51,0,0,1,1.3.28,4.52,4.52,0,0,1,1.35.88,11.59,11.59,0,0,0,2.67,1.93,5.34,5.34,0,0,0,2.34.61,4.3,4.3,0,0,0,3.34-1.6,15.71,15.71,0,0,0,2.51-4.14,2.85,2.85,0,0,1,1-1.3,2.52,2.52,0,0,1,1.41-.41,3.71,3.71,0,0,1,2.59,1.16,3.81,3.81,0,0,1,1.21,2.87v.36a1.14,1.14,0,0,1-.06.36q-.88,4.58-2.07,8.55a49.33,49.33,0,0,1-2.92,7.53,47.49,47.49,0,0,1-4.14,6.89,51.81,51.81,0,0,1-5.76,6.65,5,5,0,0,1-1.16.47,4.33,4.33,0,0,1-1,.14,3.57,3.57,0,0,1-2.51-.94,3.08,3.08,0,0,1-1-2.37,4.17,4.17,0,0,1,.88-2.48q1.54-2.15,2.81-3.83t2.29-3.31q1-1.63,1.9-3.34a36.8,36.8,0,0,0,1.71-3.92,2.54,2.54,0,0,1-.5.06h-.5A11.34,11.34,0,0,1,217.8,337,18,18,0,0,1,213.28,333.76Z"/><path class="cls-1" d="M237,318.38q2.2-.44,4.63-.85a28.82,28.82,0,0,1,4.85-.41,11.3,11.3,0,0,1,11.64,11.22,10.92,10.92,0,0,1-1.6,5.82,9.14,9.14,0,0,1-2.34,2.54,19.64,19.64,0,0,1-3.25,2,17.93,17.93,0,0,1-3.45,1.3,9.91,9.91,0,0,1-2.87.39l-.83,7.89a3.66,3.66,0,0,1-1.32,2.67,3.81,3.81,0,0,1-2.37.91,3.09,3.09,0,0,1-2.15-.8,3,3,0,0,1-.83-2.45l.77-24a1.54,1.54,0,0,1-.58.11h-.58a3.34,3.34,0,0,1-2.51-.88,2.78,2.78,0,0,1-.85-2,3.17,3.17,0,0,1,.85-2.1A4.81,4.81,0,0,1,237,318.38Zm7.61,15.06a3.86,3.86,0,0,0,2.48.17,5.55,5.55,0,0,0,2.18-1.16,6.13,6.13,0,0,0,1.52-1.93,4.4,4.4,0,0,0,.5-2.21,7.15,7.15,0,0,0-.63-2.4,5.37,5.37,0,0,0-1.41-1.87,4.61,4.61,0,0,0-2.07-1,5.37,5.37,0,0,0-2.56.14Z"/><path class="cls-1" d="M266.55,340.32a7.31,7.31,0,0,0,3.42,2.9,9.53,9.53,0,0,0,4.36.69,4.77,4.77,0,0,0,1.21-.28q.61-.22,1.19-.47t1.16-.44a5.21,5.21,0,0,1,1.13-.25,3.46,3.46,0,0,1,2.81.85,3.59,3.59,0,0,1,1.21,2.4,3.07,3.07,0,0,1-.61,2.21,6.08,6.08,0,0,1-1.9,1.6,10.59,10.59,0,0,1-2.65,1,17.86,17.86,0,0,1-2.79.47,16,16,0,0,1-3.75,0,12.53,12.53,0,0,1-4.61-1.41,16.53,16.53,0,0,1-4.11-3,16.71,16.71,0,0,1-3-4.08,12.24,12.24,0,0,1-1.41-4.52,20.17,20.17,0,0,1,.17-4.41,13.45,13.45,0,0,1,1.46-4.49,10.5,10.5,0,0,1,3.2-3.61,10.84,10.84,0,0,1,5.32-1.82,10.62,10.62,0,0,1,10,4,12.21,12.21,0,0,1,2,3.89,17.44,17.44,0,0,1,.72,3.23,6.11,6.11,0,0,1-.3,2.78,2.44,2.44,0,0,1-2.07,1.57Zm8-6.89a8,8,0,0,0-.39-1.6,4,4,0,0,0-.8-1.35,3.37,3.37,0,0,0-1.32-.88,4.37,4.37,0,0,0-2-.19,3.2,3.2,0,0,0-1.43.55,7.92,7.92,0,0,0-1.43,1.19,8.45,8.45,0,0,0-1.1,1.41,1.93,1.93,0,0,0-.39,1.16c0,.33.2.46.61.39Z"/><path class="cls-1" d="M288.5,324.17a18.73,18.73,0,0,0,.44-2,18.56,18.56,0,0,1,.44-2,5.52,5.52,0,0,1,1.6-2.7,3.32,3.32,0,0,1,2.15-.88,3.13,3.13,0,0,1,2.29,1,4.26,4.26,0,0,1,1,3.09,8.6,8.6,0,0,1-.19,1.79q-.19.91-.41,1.68a15.35,15.35,0,0,1,2.26.16,6.12,6.12,0,0,1,1.9.57,3.28,3.28,0,0,1,1.27,1.12,2.84,2.84,0,0,1,.41,1.75,3.69,3.69,0,0,1-.55,2,3,3,0,0,1-1.32,1.07,6.43,6.43,0,0,1-1.9.47,22.55,22.55,0,0,1-2.29.11,7.67,7.67,0,0,1-1.49-.17,24.55,24.55,0,0,0-.41,2.49,21.86,21.86,0,0,0-.14,2.49,20,20,0,0,0,1.6,7.88,15.73,15.73,0,0,0,5.35,6.55,3,3,0,0,1,1.21,2.38,3.48,3.48,0,0,1-.3,1.41,4.34,4.34,0,0,1-.83,1.24,4.6,4.6,0,0,1-1.21.91,3.11,3.11,0,0,1-3,0,15.47,15.47,0,0,1-4.66-3.51,20.21,20.21,0,0,1-3.14-4.7,21.93,21.93,0,0,1-1.79-5.47,31.2,31.2,0,0,1-.55-5.83q0-1.49.14-2.93t.41-2.87a6.14,6.14,0,0,1-3.83-1.15,3,3,0,0,1-1.19-2.3,3.44,3.44,0,0,1,1.32-2.6,5.29,5.29,0,0,1,3.64-1.18A9.9,9.9,0,0,1,288.5,324.17Z"/><path class="cls-1" d="M319.71,325.93a8.22,8.22,0,0,1,2.43,2.32,4.18,4.18,0,0,1,.72,2.18,2.9,2.9,0,0,1-.58,1.79,3,3,0,0,1-1.52,1.08,4.18,4.18,0,0,1-2,.11,4.08,4.08,0,0,1-2.1-1.13,7.24,7.24,0,0,0-3.31-1.87,6.45,6.45,0,0,0-2.79-.14q-1.08.25-1.21,1t1.41,1.52q1.32.66,2.67,1.19a28.17,28.17,0,0,1,2.59,1.16,10.73,10.73,0,0,1,2.26,1.54,6.83,6.83,0,0,1,1.68,2.45,7.55,7.55,0,0,1,.39,5.27,9.27,9.27,0,0,1-2.76,4.27,11.28,11.28,0,0,1-4.77,2.48,10.35,10.35,0,0,1-5.6-.11,12.21,12.21,0,0,1-2.73-1.08,14.6,14.6,0,0,1-2.4-1.74,3.79,3.79,0,0,1-1.54-2.7,3.38,3.38,0,0,1,.8-2.43,3.77,3.77,0,0,1,2.32-1.24,4,4,0,0,1,3.06.91,9.36,9.36,0,0,0,3.14,1.6,3,3,0,0,0,2,0Q313,343.69,313,343a1.93,1.93,0,0,0-.66-1.35,6.89,6.89,0,0,0-1.74-1.21q-1.08-.55-2.07-1a15.86,15.86,0,0,1-3.28-1.87,12.33,12.33,0,0,1-2.65-2.62,7.52,7.52,0,0,1-1.38-3.23,6.48,6.48,0,0,1,.52-3.69,5.69,5.69,0,0,1,1.6-2.21,9.88,9.88,0,0,1,2.34-1.46,11.45,11.45,0,0,1,2.73-.83,16.47,16.47,0,0,1,2.81-.25,14,14,0,0,1,4.55.69A17.57,17.57,0,0,1,319.71,325.93Z"/><path class="cls-2" d="M322.08,321.52a3.2,3.2,0,0,1,1.1-2.62,4,4,0,0,1,2.45-1,3.82,3.82,0,0,1,2.45.74,2.89,2.89,0,0,1,1.1,2.51q0,2.92-.11,5.79l-.22,5.73q-.11,2.87-.14,5.76t.14,5.82a18.09,18.09,0,0,0,4.94.52,25,25,0,0,0,4.83-.63,4.25,4.25,0,0,1,3.09.83,3.3,3.3,0,0,1,1.24,2.18,3.58,3.58,0,0,1-.69,2.45,4.14,4.14,0,0,1-2.76,1.6l-1.27.25q-1,.19-2.48.33t-3.25.17a20.78,20.78,0,0,1-3.53-.25,14.21,14.21,0,0,1-3.34-.94,7,7,0,0,1-2.62-1.87,5,5,0,0,1-.88-1.71,11.1,11.1,0,0,1-.39-1.93,18,18,0,0,1-.11-2v-1.93q-.11-5,.17-9.93T322.08,321.52Z"/><path class="cls-2" d="M342.65,328.69A3.49,3.49,0,0,1,344,326a4.25,4.25,0,0,1,2.54-.88,3.4,3.4,0,0,1,2.23.8,2.94,2.94,0,0,1,1,2.4q0,2.76-.17,5.71t-.17,5.76q0,1.82.14,3.5a31.34,31.34,0,0,0,.41,3.17c0,.18.06.36.08.52a4.71,4.71,0,0,1,0,.52,3.65,3.65,0,0,1-1.08,2.78,3.47,3.47,0,0,1-2.45,1,2.82,2.82,0,0,1-2.43-1.24,8.49,8.49,0,0,1-1.3-3.2,27.18,27.18,0,0,1-.52-4.38q-.11-2.43-.11-4.8t.11-4.58Q342.43,330.89,342.65,328.69Zm3.42-6a3.22,3.22,0,0,1-2.32-1,3.34,3.34,0,0,1-1-2.51,4.07,4.07,0,0,1,.39-1.68,6.14,6.14,0,0,1,1-1.54,4.53,4.53,0,0,1,1.38-1.08,2.94,2.94,0,0,1,1.54-.33,3.06,3.06,0,0,1,2.32,1,3.62,3.62,0,0,1,.94,2.59,3.51,3.51,0,0,1-.41,1.63,6.12,6.12,0,0,1-1,1.43,5.46,5.46,0,0,1-1.38,1A3.06,3.06,0,0,1,346.07,322.68Z"/><path class="cls-2" d="M352.19,330.67a13.44,13.44,0,0,1,.14-3.92,8.44,8.44,0,0,1,1.49-3.58A7.16,7.16,0,0,1,357,320.8a9.31,9.31,0,0,1,5-.33,3,3,0,0,1,1.93,1.16,4,4,0,0,1,.83,2,2.91,2.91,0,0,1-.44,1.93,1.94,1.94,0,0,1-1.76.85,3.37,3.37,0,0,0-2.92,1.21,5.79,5.79,0,0,0-1,3.14l1.21-.22a4.52,4.52,0,0,1,1.21-.06,2.4,2.4,0,0,1,1.85,1.1,3.47,3.47,0,0,1,.52,2,3.7,3.7,0,0,1-.74,2,2.72,2.72,0,0,1-1.9,1.1,5.66,5.66,0,0,1-1.27,0,3.89,3.89,0,0,0-1.21,0,53.72,53.72,0,0,0,.22,7,47.69,47.69,0,0,1,.28,5.82,2.57,2.57,0,0,1-1,2.21,3.35,3.35,0,0,1-2.12.69,3.67,3.67,0,0,1-2.15-.77,2.7,2.7,0,0,1-1-2.18q-.11-1.65-.14-3.28t-.08-3.23q-.11-1.43-.22-2.76t-.11-3.14a3.08,3.08,0,0,1-2.12-.28,3,3,0,0,1-1.24-1.3,3.77,3.77,0,0,1-.36-1.76,3.66,3.66,0,0,1,.5-1.76,3.21,3.21,0,0,1,1.32-1.24A3.11,3.11,0,0,1,352.19,330.67Z"/><path class="cls-2" d="M371.16,340.32a7.31,7.31,0,0,0,3.42,2.9,9.53,9.53,0,0,0,4.36.69,4.77,4.77,0,0,0,1.21-.28q.61-.22,1.19-.47t1.16-.44a5.21,5.21,0,0,1,1.13-.25,3.46,3.46,0,0,1,2.81.85,3.59,3.59,0,0,1,1.21,2.4,3.07,3.07,0,0,1-.61,2.21,6.08,6.08,0,0,1-1.9,1.6,10.59,10.59,0,0,1-2.65,1,17.86,17.86,0,0,1-2.79.47,16,16,0,0,1-3.75,0,12.53,12.53,0,0,1-4.61-1.41,16.53,16.53,0,0,1-4.11-3,16.71,16.71,0,0,1-3-4.08,12.24,12.24,0,0,1-1.41-4.52,20.17,20.17,0,0,1,.17-4.41,13.45,13.45,0,0,1,1.46-4.49,10.5,10.5,0,0,1,3.2-3.61,10.84,10.84,0,0,1,5.32-1.82,10.62,10.62,0,0,1,10,4,12.21,12.21,0,0,1,2,3.89,17.44,17.44,0,0,1,.72,3.23,6.11,6.11,0,0,1-.3,2.78,2.44,2.44,0,0,1-2.07,1.57Zm8-6.89a8,8,0,0,0-.39-1.6,4,4,0,0,0-.8-1.35,3.37,3.37,0,0,0-1.32-.88,4.37,4.37,0,0,0-2-.19,3.2,3.2,0,0,0-1.43.55,7.92,7.92,0,0,0-1.43,1.19,8.45,8.45,0,0,0-1.1,1.41,1.93,1.93,0,0,0-.39,1.16c0,.33.2.46.61.39Z"/><path class="cls-3" d="M181.35,204.07c-10.22,7-22.61,17.3-35.69,17.58-5.68.12-10.94-2-15.88-4.63s-9.9-4.87-14.56-7.7A9.41,9.41,0,0,1,112,206c-3.8-5.56-7.3-10.91-9.52-17.34-5.59-16.22-3.09-32.67,6.6-46.71,4.88-7.06,9.92-14.14,15.25-20.86,5.15-6.5,9.48-13.72,17.1-17.63,8.5-4.36,19.19-6.51,28.67-6.7s18.27,2.48,27,5.65c14.43,5.22,30.54,10.67,40.8,22.74,11.31,13.31,11.27,32,11.15,48.52-.08,10.54-1.65,19.79-7.87,28.53-4.65,6.53-11.44,15.42-19.17,18.34-13,4.93-30.64-.67-41.28-8.75-1.54-1.17-3,1.44-1.51,2.59,10.49,8,26,12.56,39.06,10.24,7.11-1.26,11.53-5.17,16.42-10.22,5.85-6,11.38-12.66,14.48-20.56,3.52-9,3-19.1,2.84-28.59-.14-8.81-.71-17.79-3.36-26.25-5.3-16.92-19-26.62-34.7-33.29-17.48-7.45-35.41-14.27-54.66-10.85-9,1.6-18.9,4.21-25.87,10.46-6.31,5.65-11.58,13.56-16.49,20.43-5.54,7.75-12,15.46-16,24.15a50.52,50.52,0,0,0-4.41,24,62,62,0,0,0,14.18,35.54c2.18,2.59,5.77,3.89,8.69,5.42,6.78,3.54,13.57,8,21.24,9.34,15.55,2.7,30.37-9.38,42.26-17.58,1.58-1.09.08-3.69-1.51-2.59Z"/><path class="cls-3" d="M75.53,52.08c-3.14,8.12-8,15.75-9.6,24.4a46.29,46.29,0,0,0,.66,18.31c2.47,11,10.18,24,22.7,25.18,5.82.54,11.73-6.84,14.91-10.91a45,45,0,0,0,8.48-17.85c3-13.46-.34-29.13-8.87-40.06C96,41.2,78.9,40.92,75.15,54.73a1.5,1.5,0,0,0,2.89.8c2-7.54,10.57-10.82,17.52-7.59,7.12,3.32,11.05,12.8,13.19,19.9,4.3,14.32,1.47,30-8.48,41.28-2.73,3.1-7.07,8.09-11.54,7.73-3.22-.26-6.75-2.5-9.18-4.55-5.14-4.32-8.17-10.69-9.78-17.09a42.48,42.48,0,0,1-.62-19.52c1.83-8,6.32-15.19,9.27-22.81.7-1.8-2.2-2.58-2.89-.8Z"/><path class="cls-3" d="M137.77,9.2c-3.09,8.17-7.93,15.87-9.47,24.57A45.44,45.44,0,0,0,129.16,52c2.65,11.06,10.64,23.71,23.23,24.63,5.95.43,11.74-7,15-11.2a45.14,45.14,0,0,0,8.4-18c2.89-13.46-.64-29-9.38-39.78-8-9.86-25.32-9.64-29,4.17a1.5,1.5,0,0,0,2.89.8c1.93-7.32,10-10.85,17-8.3,7.67,2.8,12,12.55,14.3,19.82a43.12,43.12,0,0,1-8.14,41.39c-2.66,3.08-7.21,8.26-11.62,8-3-.17-6.31-2-8.71-3.82-5.61-4.14-9-10.71-10.74-17.31A41.78,41.78,0,0,1,131.52,33c1.77-8.07,6.24-15.3,9.15-23,.68-1.81-2.21-2.59-2.89-.8Z"/><path class="cls-3" d="M201.94,17.55c-1.28,8.67-4.22,17.22-4.15,26a44.63,44.63,0,0,0,4.35,18c4.84,10.52,15,20.77,27.6,19.07,6.18-.84,10.13-9.13,12.51-14.16A48.73,48.73,0,0,0,247,46.49c.22-13.92-6.3-28.79-17.42-37.41C219.09.94,202.75,6.55,202.1,20.66c-.09,1.93,2.91,1.93,3,0A13.65,13.65,0,0,1,219.81,8c8.25.66,14.8,9.64,18.52,16.26A44.58,44.58,0,0,1,239,66.42C237,70.34,233.72,77,229,77.79c-3,.52-6.55-.38-9.33-1.53-5.84-2.43-10.2-7.33-13.26-12.74a42.56,42.56,0,0,1-5.66-19c-.29-8.83,2.76-17.47,4-26.13.28-1.89-2.61-2.7-2.89-.8Z"/><path class="cls-3" d="M261.55,74.9c-3.51,7.6-8.47,14.65-10.91,22.72a43.59,43.59,0,0,0-1.15,18.31c1.51,11.17,8.05,23.89,20.43,25.65,6,.86,12.11-6,15.73-10.09a48,48,0,0,0,9.87-17.41c4.05-13,2.09-29.1-6.24-40.17-7.72-10.26-24.11-8.61-28.44,4-.63,1.83,2.27,2.62,2.89.8a13.28,13.28,0,0,1,18-7.49c6.77,3.21,10.07,12.55,11.68,19.4a43.83,43.83,0,0,1-10.83,39.87c-3,3.21-7.69,8.54-12.51,8.14-3.11-.26-6.49-2.4-8.78-4.41-4.52-4-7-9.72-8.27-15.49a42,42,0,0,1,.09-18.7c2.09-8.43,7.45-15.76,11-23.56.8-1.74-1.78-3.27-2.59-1.51Z"/><path class="cls-3" d="M180.72,211.83c-11-7.16-21.82-14.81-31.34-23.89-7-6.72-16.41-16.3-16-26.86.37-8.55,9.62-16.28,17.92-16.83,11-.73,17.54,8.84,20.74,18.1.63,1.81,3.53,1,2.89-.8-2.89-8.36-7.82-16.74-16.78-19.48-6-1.83-11.73-.53-16.89,2.76-6.84,4.36-11.87,11.06-10.69,19.5,1.29,9.3,8.2,17.31,14.58,23.72,10.12,10.17,22,18.58,34,26.38,1.62,1.06,3.13-1.54,1.51-2.59Z"/><path class="cls-3" d="M174.84,162.7c3.16-6,8-12.37,14.15-15.56,8.06-4.19,17.23,1.1,20.7,7.91,10.08,19.77-14.63,39.59-28.33,49-1.58,1.09-.08,3.69,1.51,2.59,14.59-10.05,35.88-27.19,31.38-47.72-2.72-12.4-16.89-20.73-28.29-13.5-5.8,3.67-10.54,9.7-13.71,15.75-.89,1.71,1.69,3.23,2.59,1.51Z"/><path class="cls-3" d="M42.65,270a.5.5,0,0,1-.42-.78c4.44-6.74,10.67-9.28,19-7.78a.5.5,0,0,1,.4.58.51.51,0,0,1-.58.4c-7.93-1.43-13.82,1-18,7.35A.5.5,0,0,1,42.65,270Z"/><path class="cls-3" d="M216.07,302.93c-6,0-11.28-2.59-16-7.82a.5.5,0,0,1,.74-.67c6.38,7,13.8,9.08,22.67,6.25a.5.5,0,0,1,.3,1A25.28,25.28,0,0,1,216.07,302.93Z"/><path class="cls-3" d="M386.75,298.31a.5.5,0,0,1-.46-.69c3.11-7.61,2.3-13-2.46-16.37a.5.5,0,1,1,.58-.81c5.2,3.71,6.12,9.46,2.81,17.56A.5.5,0,0,1,386.75,298.31Z"/></g></g></svg>