<svg xmlns="http://www.w3.org/2000/svg" width="107.424" height="100.498" viewBox="0 0 107.424 100.498">
    <g id="Groupe_4612" data-name="Groupe 4612" transform="translate(-1152 -579)">
        <g id="Groupe_4611" data-name="Groupe 4611" transform="translate(1152 579)">
            <path id="Tracé_2469" data-name="Tracé 2469" d="M1544.584,769.458v39.6a2.809,2.809,0,0,1-2.808,2.808h-12.037a2.809,2.809,0,0,1-2.808-2.808V780.682a1.124,1.124,0,0,1,.345-.81l13.439-12.909a1.123,1.123,0,0,1,.778-.313h.284A2.809,2.809,0,0,1,1544.584,769.458Z" transform="translate(-1519.908 -711.368)" fill="#000000"/>
            <path id="Tracé_2470" data-name="Tracé 2470" d="M1574.305,744.416l13.419,11.688v43.087a2.809,2.809,0,0,1-2.808,2.808h-12.037a2.809,2.809,0,0,1-2.808-2.808V747.066l2.719-2.613A1.123,1.123,0,0,1,1574.305,744.416Z" transform="translate(-1538.817 -701.502)" fill="#000000"/>
            <path id="Tracé_2471" data-name="Tracé 2471" d="M1630.864,764.788v42.222a2.809,2.809,0,0,1-2.808,2.808h-12.037a2.809,2.809,0,0,1-2.808-2.808V768.518a2.53,2.53,0,0,0,1.466-.736l5.376-5.466a1.122,1.122,0,0,1,.8-.336h7.2A2.809,2.809,0,0,1,1630.864,764.788Z" transform="translate(-1557.726 -709.321)" fill="#000000"/>
            <path id="Tracé_2472" data-name="Tracé 2472" d="M1674,706.854v74.8a2.806,2.806,0,0,1-2.808,2.808h-12.031a2.809,2.809,0,0,1-2.808-2.808V719.732a1.124,1.124,0,0,1,.322-.788l14.233-14.478a1.133,1.133,0,0,1,1.156-.283A2.8,2.8,0,0,1,1674,706.854Z" transform="translate(-1576.634 -683.965)" fill="#000000"/>
            <g id="Groupe_4610" data-name="Groupe 4610">
                <path id="Tracé_2473" data-name="Tracé 2473" d="M1621.853,670.758v19.951a2.528,2.528,0,0,1-5.055,0V676.9l-11.223,11.414-11.43,11.621-20.6,20.957-3.629,3.69-.337.343-6.24-5.437-13.5-11.762a1.137,1.137,0,0,0-1.528.039l-2.629,2.522-13.767,13.228-10.464,10.049-2.741,2.634a2.528,2.528,0,0,1-3.5-3.645l6.246-6,3.162-3.039,21.069-20.238,2.46-2.365a1.138,1.138,0,0,1,1.533-.034l13.66,11.9,5.173,4.5a1.126,1.126,0,0,0,1.55-.062l24.085-24.5,4.342-4.415,14.767-15.025H1599.38a2.528,2.528,0,0,1,0-5.055h19.946A2.528,2.528,0,0,1,1621.853,670.758Z" transform="translate(-1514.429 -668.23)" fill="#000000"/>
            </g>
        </g>
    </g>
</svg>
