<svg xmlns="http://www.w3.org/2000/svg" width="100" height="100" viewBox="0 0 100 100">
    <g id="Groupe_4609" data-name="Groupe 4609" transform="translate(-792 -617.992)">
        <g id="Groupe_4608" data-name="Groupe 4608" transform="translate(792 617.992)">
            <path id="Tracé_2459" data-name="Tracé 2459" d="M1460.464,353.339a50,50,0,1,0,50,50A50,50,0,0,0,1460.464,353.339Zm0,94.87a44.87,44.87,0,1,1,44.872-44.872A44.867,44.867,0,0,1,1460.464,448.209Z" transform="translate(-1410.467 -353.339)" fill="#000000"/>
            <path id="Tracé_2460" data-name="Tracé 2460" d="M1506.664,476.379c-2.329,14.358-7.832,24.44-14.231,24.44s-11.9-10.082-14.226-24.44Z" transform="translate(-1442.425 -411.415)" fill="#000000"/>
            <path id="Tracé_2461" data-name="Tracé 2461" d="M1551.873,476.379a39.963,39.963,0,0,1-25.406,22.768c3.926-5.433,6.627-13.621,8.039-22.768Z" transform="translate(-1465.239 -411.415)" fill="#000000"/>
            <path id="Tracé_2462" data-name="Tracé 2462" d="M1562.62,438.183a39.183,39.183,0,0,1-1.391,10.289h-18.422c.34-3.375.531-6.834.531-10.289s-.191-6.914-.531-10.294h18.439A39.945,39.945,0,0,1,1562.62,438.183Z" transform="translate(-1472.908 -388.492)" fill="#000000"/>
            <path id="Tracé_2463" data-name="Tracé 2463" d="M1551.847,398.057H1534.48c-1.406-9.153-4.112-17.335-8.033-22.768A39.926,39.926,0,0,1,1551.847,398.057Z" transform="translate(-1465.229 -363.642)" fill="#000000"/>
            <path id="Tracé_2464" data-name="Tracé 2464" d="M1506.787,438.183a100.081,100.081,0,0,1-.531,10.289h-29.793a101.052,101.052,0,0,1,0-20.582h29.793A100.264,100.264,0,0,1,1506.787,438.183Z" transform="translate(-1441.359 -388.492)" fill="#000000"/>
            <path id="Tracé_2465" data-name="Tracé 2465" d="M1506.664,396.579h-28.457c2.324-14.358,7.827-24.44,14.226-24.44S1504.334,382.221,1506.664,396.579Z" transform="translate(-1442.425 -362.164)" fill="#000000"/>
            <path id="Tracé_2466" data-name="Tracé 2466" d="M1461.1,375.289c-3.916,5.433-6.622,13.615-8.017,22.768h-17.372A39.936,39.936,0,0,1,1461.1,375.289Z" transform="translate(-1422.314 -363.642)" fill="#000000"/>
            <path id="Tracé_2467" data-name="Tracé 2467" d="M1449.155,438.183c0,3.454.191,6.914.52,10.289h-18.433a38.933,38.933,0,0,1,0-20.582h18.444C1449.346,431.269,1449.155,434.723,1449.155,438.183Z" transform="translate(-1419.569 -388.492)" fill="#000000"/>
            <path id="Tracé_2468" data-name="Tracé 2468" d="M1461.113,499.147a39.962,39.962,0,0,1-25.406-22.768h17.372C1454.491,485.527,1457.2,493.714,1461.113,499.147Z" transform="translate(-1422.314 -411.415)" fill="#000000"/>
        </g>
    </g>
</svg>
